<svg xmlns="http://www.w3.org/2000/svg" width="71" height="105.335" viewBox="0 0 71 105.335">
  <g id="employee" transform="translate(-83.447)">
    <g id="Group_17" data-name="Group 17" transform="translate(83.447)">
      <path id="Path_48" data-name="Path 48" d="M152.9,85.347a1.543,1.543,0,0,0-1.543,1.543V101.4a.853.853,0,0,1-.852.852h-8.295V71.862a1.543,1.543,0,1,0-3.086,0v30.386h-16.7l4.844-5.328a2.766,2.766,0,0,0,.667-2.219c0-.016,0-.031-.007-.047L123.316,67.4l1.243-1.871a3.5,3.5,0,0,0,2.209.958,2.7,2.7,0,0,0,2.418-1.5h0l4.866-9.752,11.084,4.293a10.692,10.692,0,0,1,6.224,9.718V79.689a1.543,1.543,0,1,0,3.086,0V69.252A13.771,13.771,0,0,0,146.3,56.676l-.029-.012L127.825,49.52V45.193a14.458,14.458,0,0,0,5.472-9.51,6.679,6.679,0,0,0,3.924-1.6,6.551,6.551,0,0,0,.683-9.243V19.123a19.123,19.123,0,1,0-38.247,0v5.866a6.2,6.2,0,0,0-1.591,4.13,6.539,6.539,0,0,0,2.275,4.964,6.675,6.675,0,0,0,3.921,1.6,14.305,14.305,0,0,0,5.785,9.739v4.1L91.62,56.664l-.029.012a13.771,13.771,0,0,0-8.144,12.576V101.4a3.943,3.943,0,0,0,3.938,3.938h14.7a1.543,1.543,0,1,0,0-3.086h-3.32V71.862a1.543,1.543,0,0,0-3.086,0v30.386H87.385a.853.853,0,0,1-.852-.852V69.252a10.692,10.692,0,0,1,6.222-9.718l11.075-4.294,4.866,9.752a2.7,2.7,0,0,0,2.419,1.5,3.5,3.5,0,0,0,2.209-.958l1.243,1.871-4.613,27.253c0,.015,0,.031-.007.046a2.767,2.767,0,0,0,.667,2.22l4.844,5.328h-6.171a1.543,1.543,0,1,0,0,3.086h41.222a3.943,3.943,0,0,0,3.938-3.938V86.89A1.544,1.544,0,0,0,152.9,85.347ZM131.162,54.122l-4.536,9.091-5.455-3.875,5.6-6.916Zm-9.121,9.621-1.176,1.771h-3.848l-1.176-1.771,3.1-2.2Zm-8.908-13.725V47.13a15.656,15.656,0,0,0,5.835,1.106,14.486,14.486,0,0,0,5.771-1.2v3l-5.8,7.156Zm23.276-20.9a3.457,3.457,0,0,1-1.2,2.624,3.594,3.594,0,0,1-1.782.82V25.676A3.491,3.491,0,0,1,136.409,29.119Zm-32.274,3.444a3.486,3.486,0,0,1-2.983-3.444,3.664,3.664,0,0,1,2.983-3.366Zm.083-9.954a7.629,7.629,0,0,0-1.475.332V19.123a16.037,16.037,0,1,1,32.074,0v3.712a6.86,6.86,0,0,0-1.391-.269c0-1.489.013-1.2-4.858-6.438a2.745,2.745,0,0,0-3.505-.427,29.749,29.749,0,0,1-17.984,4.841A2.744,2.744,0,0,0,104.218,22.609Zm3,11.169V23.644a32.974,32.974,0,0,0,19.285-5.2c2.234,2.4,3.444,3.656,3.834,4.135v11.2a11.561,11.561,0,0,1-23.119,0Zm4.035,29.435-4.536-9.091,4.381-1.7,5.6,6.918Zm1.77,31.774L117.494,68.6h2.895l4.466,26.388-5.914,6.506Z" transform="translate(-83.447)"/>
    </g>
  </g>
</svg>
