<svg xmlns="http://www.w3.org/2000/svg" width="102.897" height="102.897" viewBox="0 0 102.897 102.897">
  <path id="Path_77" data-name="Path 77" d="M538.346,146.116a51.283,51.283,0,1,1,19.361-3.767A51.279,51.279,0,0,1,538.346,146.116Zm0-99.4a47.81,47.81,0,1,0,18.667,3.769A47.656,47.656,0,0,0,538.345,46.712ZM511.691,84.17a8.327,8.327,0,0,1,11.763,0,1.747,1.747,0,0,0,2.471-2.469,11.827,11.827,0,0,0-16.707,0,1.747,1.747,0,1,0,2.472,2.469Zm41.548,0a8.327,8.327,0,0,1,11.763,0,1.747,1.747,0,0,0,2.471-2.469,11.828,11.828,0,0,0-16.707,0,1.747,1.747,0,1,0,2.473,2.469Zm-14.894,45.4a29.642,29.642,0,0,1-29.635-29.466,1.744,1.744,0,0,1,1.744-1.735h55.784a1.747,1.747,0,0,1,1.75,1.744,29.639,29.639,0,0,1-29.465,29.457Zm-25.933-26.129a26.149,26.149,0,0,0,51.868,0l.2-1.578H512.208Z" transform="translate(-486.897 -43.219)"/>
</svg>
