<svg xmlns="http://www.w3.org/2000/svg" width="21.791" height="39.786" viewBox="0 0 21.791 39.786"><g transform="translate(-66.5)"><path d="M183.146,204.43a1,1,0,0,1,0-2.009h2.181v-2.411A1.937,1.937,0,0,0,183.412,198h-4.994v10.851h4.994a1.937,1.937,0,0,0,1.915-2.009V204.43Z" transform="translate(-97.047 -171.476)" fill="#646464"/><path d="M79.378,15.807c0-.045.074-.089.071-.134h1.069A7.837,7.837,0,0,0,80.518,0H74.273a7.837,7.837,0,0,0,0,15.673h1.2c0,.044-.084.089-.084.134v21.97a1.993,1.993,0,1,0,3.986,0ZM70.486,7.837a3.807,3.807,0,0,1,3.787-3.818h6.245a3.818,3.818,0,0,1,0,7.636H74.273A3.807,3.807,0,0,1,70.486,7.837Z" fill="#646464"/></g></svg>