<svg xmlns="http://www.w3.org/2000/svg" width="79.114" height="100.997" viewBox="0 0 79.114 100.997">
  <g id="list" transform="translate(-6.5)">
    <path id="Path_49" data-name="Path 49" d="M61.062,0H6.5V101H85.614V24.552Zm.986,5.747L79.868,23.566H62.048ZM9.867,97.631V3.367H58.682V26.933H82.248v70.7Z" transform="translate(0)"/>
    <path id="Path_50" data-name="Path 50" d="M54.116,21H27.183a1.683,1.683,0,0,0,0,3.367H54.116a1.683,1.683,0,1,0,0-3.367Z" transform="translate(12.982 14.349)"/>
    <path id="Path_51" data-name="Path 51" d="M27.914,18.369l-7.24,5.792-2.3-2.3a1.683,1.683,0,0,0-2.38,2.38l3.367,3.367a1.682,1.682,0,0,0,2.24.125L30.017,21a1.683,1.683,0,0,0-2.1-2.629Z" transform="translate(6.149 12.299)"/>
    <path id="Path_52" data-name="Path 52" d="M54.116,32H27.183a1.683,1.683,0,0,0,0,3.367H54.116a1.683,1.683,0,1,0,0-3.367Z" transform="translate(12.982 21.865)"/>
    <path id="Path_53" data-name="Path 53" d="M27.914,29.369l-7.24,5.792-2.3-2.3a1.683,1.683,0,1,0-2.38,2.38l3.367,3.367a1.682,1.682,0,0,0,2.24.125L30.017,32a1.683,1.683,0,0,0-2.1-2.629Z" transform="translate(6.149 19.815)"/>
    <path id="Path_54" data-name="Path 54" d="M54.116,43H27.183a1.683,1.683,0,1,0,0,3.367H54.116a1.683,1.683,0,1,0,0-3.367Z" transform="translate(12.982 29.381)"/>
    <path id="Path_55" data-name="Path 55" d="M27.914,40.369l-7.24,5.792-2.3-2.3a1.683,1.683,0,1,0-2.38,2.38l3.367,3.367a1.682,1.682,0,0,0,2.24.125L30.017,43a1.683,1.683,0,0,0-2.1-2.629Z" transform="translate(6.149 27.331)"/>
  </g>
</svg>
