<svg xmlns="http://www.w3.org/2000/svg" width="100.997" height="100.997" viewBox="0 0 100.997 100.997">
  <g id="outline" transform="translate(-2 -2)">
    <path id="Path_61" data-name="Path 61" d="M101.314,2H3.683A1.683,1.683,0,0,0,2,3.683,18.538,18.538,0,0,0,20.516,22.2H42.4v6.733H39.032a1.683,1.683,0,0,0-1.683,1.683v8.416h-7.44a8.417,8.417,0,0,0-8.366,7.488L16.306,93.651A8.416,8.416,0,0,0,24.672,103H80.325a8.416,8.416,0,0,0,8.366-9.346L83.454,46.52a8.416,8.416,0,0,0-8.366-7.487h-7.44V30.616a1.683,1.683,0,0,0-1.683-1.683H62.6V22.2H84.481A18.538,18.538,0,0,0,103,3.683,1.683,1.683,0,0,0,101.314,2ZM75.088,42.4A5.05,5.05,0,0,1,80.1,46.89l5.238,47.132a5.062,5.062,0,0,1-1.256,3.925,4.989,4.989,0,0,1-3.762,1.683H24.672a4.989,4.989,0,0,1-3.762-1.683,5.062,5.062,0,0,1-1.257-3.927l5.238-47.132A5.05,5.05,0,0,1,29.909,42.4ZM64.282,32.3v6.733H60.915V35.666H57.548v3.367H54.182V35.666H50.815v3.367H47.449V35.666H44.082v3.367H40.716V32.3ZM45.765,28.933V22.2H59.232v6.733Zm38.716-10.1H20.516A15.17,15.17,0,0,1,5.461,5.367H99.536A15.17,15.17,0,0,1,84.481,18.833Z"/>
    <path id="Path_62" data-name="Path 62" d="M20,51.2A20.2,20.2,0,1,0,40.2,31,20.2,20.2,0,0,0,20,51.2Zm20.2-1.683A1.683,1.683,0,1,1,38.516,51.2,1.683,1.683,0,0,1,40.2,49.516ZM38.516,34.452V46.459a5.05,5.05,0,1,0,3.367,0V34.452a16.833,16.833,0,1,1-3.367,0Z" transform="translate(12.299 19.815)"/>
    <rect id="Rectangle_8" data-name="Rectangle 8" width="21" height="3" transform="translate(14.997 12)"/>
  </g>
</svg>
