<svg xmlns="http://www.w3.org/2000/svg" width="86.105" height="99.352" viewBox="0 0 86.105 99.352">
  <g id="smartphone" transform="translate(-4)">
    <path id="Path_65" data-name="Path 65" d="M22.623,49a6.623,6.623,0,1,0,6.623,6.623A6.63,6.63,0,0,0,22.623,49Zm0,9.935a3.312,3.312,0,1,1,3.312-3.312A3.315,3.315,0,0,1,22.623,58.935Z" transform="translate(7.87 32.137)"/>
    <path id="Path_66" data-name="Path 66" d="M17.656,6.312h6.623a1.656,1.656,0,1,0,0-3.312H17.656a1.656,1.656,0,0,0,0,3.312Z" transform="translate(7.87 1.968)"/>
    <path id="Path_67" data-name="Path 67" d="M24.656,6.312h1.656a1.656,1.656,0,0,0,0-3.312H24.656a1.656,1.656,0,0,0,0,3.312Z" transform="translate(12.461 1.968)"/>
    <path id="Path_68" data-name="Path 68" d="M90.1,19.87H60.3V7.294A7.3,7.3,0,0,0,53.005,0H11.294A7.3,7.3,0,0,0,4,7.294V92.056a7.3,7.3,0,0,0,7.294,7.3H53a7.3,7.3,0,0,0,7.3-7.294V54.643H90.1ZM11.294,3.312H53a3.987,3.987,0,0,1,3.984,3.982V9.935H7.312V7.294A3.987,3.987,0,0,1,11.294,3.312ZM53.005,96.04H11.294a3.987,3.987,0,0,1-3.982-3.982V79.481H56.987V92.058A3.987,3.987,0,0,1,53.005,96.04Zm3.982-19.87H7.312V13.247H56.987V19.87H27.182V54.643h6.623V66.234L49.26,54.643h7.728ZM86.793,51.332H48.157l-11.04,8.279V51.332H30.494V23.182h56.3Z"/>
    <path id="Path_69" data-name="Path 69" d="M25.656,22.312H42.214a1.656,1.656,0,0,0,0-3.312H25.656a1.656,1.656,0,1,0,0,3.312Z" transform="translate(13.117 12.461)"/>
    <path id="Path_70" data-name="Path 70" d="M24,25.656a1.655,1.655,0,0,0,1.656,1.656H65.4A1.656,1.656,0,1,0,65.4,24H25.656A1.655,1.655,0,0,0,24,25.656Z" transform="translate(13.117 15.741)"/>
  </g>
</svg>
