<svg xmlns="http://www.w3.org/2000/svg" xmlns:xlink="http://www.w3.org/1999/xlink" width="169.437" height="120.269" viewBox="0 0 169.437 120.269"><defs><linearGradient id="a" y1="0.5" x2="1" y2="0.5" gradientUnits="objectBoundingBox"><stop offset="0" stop-color="#2c3a47"/><stop offset="1" stop-color="#34495e"/></linearGradient></defs><g transform="translate(-1206.78 -321.157)"><g transform="translate(1206.78 321.157)"><path d="M1276.218,441.427,1206.78,321.157h138.875l-13.286,23.011-1.247-.72,12.039-20.852H1209.274l66.944,115.95,21.939-38,1.247.72Z" transform="translate(-1206.78 -321.157)" fill="url(#a)"/></g><g transform="translate(1258.264 351.157)"><path d="M1397.228,442.113v-7.605h-10.059v7.605h-1.591V425.574h1.591v7.364h10.059v-7.364h1.591v16.539Z" transform="translate(-1385.578 -425.508)" fill="url(#a)"/><path d="M1399.668,427.574v15.387h-.44v-7.605h-11.211v7.605h-.44V427.574h.44v7.364h11.211v-7.364Z" transform="translate(-1387.002 -426.932)" fill="url(#a)"/><path d="M1464.73,442.016a8.336,8.336,0,1,1,8.467-8.336A8.218,8.218,0,0,1,1464.73,442.016Zm0-15.1a6.767,6.767,0,1,0,6.876,6.766A6.672,6.672,0,0,0,1464.73,426.915Z" transform="translate(-1435.91 -425.345)" fill="url(#a)"/><path d="M1458.263,435.1a7.892,7.892,0,1,1,7.891,7.76A7.64,7.64,0,0,1,1458.263,435.1Zm15.343,0a7.453,7.453,0,1,0-7.452,7.342A7.231,7.231,0,0,0,1473.606,435.1Z" transform="translate(-1437.334 -426.769)" fill="url(#a)"/><path d="M1542.591,442.016a8.337,8.337,0,1,1,8.467-8.336A8.218,8.218,0,0,1,1542.591,442.016Zm0-15.1a6.767,6.767,0,1,0,6.876,6.766A6.672,6.672,0,0,0,1542.591,426.915Z" transform="translate(-1491.351 -425.345)" fill="url(#a)"/><path d="M1536.124,435.1a7.892,7.892,0,1,1,7.891,7.76A7.64,7.64,0,0,1,1536.124,435.1Zm15.343,0a7.452,7.452,0,1,0-7.452,7.342A7.231,7.231,0,0,0,1551.467,435.1Z" transform="translate(-1492.775 -426.769)" fill="url(#a)"/><path d="M1629.315,442.113l-6.861-7.753-3.229,3.322v4.431h-1.592V425.574h1.592v9.863l9.6-9.863h2.2l-7.436,7.651,7.857,8.888Z" transform="translate(-1550.815 -425.508)" fill="url(#a)"/><path d="M1623.9,434.938l-3.825,3.935v4.089h-.44V427.574h.44v10.7l10.419-10.7h.594l-6.858,7.056,7.364,8.331H1631Z" transform="translate(-1552.24 -426.932)" fill="url(#a)"/><path d="M1686.828,442.113l-2.154-4.638H1676l-2.155,4.638h-1.775l7.679-16.539h1.174l7.679,16.539Zm-2.885-6.207-3.606-7.791-3.6,7.791Z" transform="translate(-1589.578 -425.508)" fill="url(#a)"/><path d="M1687.273,438.323h-9.408l-2.154,4.638h-.506l7.144-15.387h.44l7.144,15.387h-.505Zm-.2-.418-4.506-9.738-4.506,9.738Z" transform="translate(-1591.809 -426.932)" fill="url(#a)"/><path d="M1760.884,442.113v-7.605h-10.059v7.605h-1.592V425.574h1.592v7.364h10.059v-7.364h1.591v16.539Z" transform="translate(-1644.522 -425.508)" fill="url(#a)"/><path d="M1763.324,427.574v15.387h-.44v-7.605h-11.21v7.605h-.439V427.574h.439v7.364h11.21v-7.364Z" transform="translate(-1645.946 -426.932)" fill="url(#a)"/><path d="M1385.578,519.018V502.479h6.665c3.6,0,5.742,1.67,5.742,4.467a3.956,3.956,0,0,1-1.8,3.47,4.01,4.01,0,0,1,2.64,4c0,4-3.845,4.6-6.137,4.6Zm7.192-1.569c4,0,4.458-1.729,4.458-3.029s-.462-3.007-4.458-3.007h-5.6v6.036Zm-.44-7.606c1.853,0,4.062-.5,4.062-2.9s-2.209-2.9-4.062-2.9h-5.161v5.794Z" transform="translate(-1385.578 -480.269)" fill="url(#a)"/><path d="M1399.668,515.843c0,2.594-1.825,4.023-5.561,4.023h-6.529V504.479h6.089c3.165,0,5.166,1.319,5.166,3.891a3.529,3.529,0,0,1-3.033,3.6C1398.371,512.326,1399.668,513.623,1399.668,515.843Zm-11.65-10.947v6.946h5.737c2.923,0,4.638-1.187,4.638-3.473s-1.715-3.473-4.638-3.473Zm11.211,10.947c0-2.484-1.759-3.583-5.034-3.583h-6.177v7.188h6.177C1397.47,519.448,1399.228,518.327,1399.228,515.843Z" transform="translate(-1387.002 -481.693)" fill="url(#a)"/><path d="M1454.465,519.018l-2.154-4.638h-8.673l-2.154,4.638h-1.775l7.679-16.539h1.175l7.678,16.539Zm-2.885-6.208-3.605-7.79-3.605,7.79Z" transform="translate(-1424.122 -480.269)" fill="url(#a)"/><path d="M1454.91,515.228H1445.5l-2.154,4.638h-.506l7.144-15.387h.44l7.144,15.387h-.505Zm-.2-.418-4.506-9.737-4.506,9.737Z" transform="translate(-1426.353 -481.693)" fill="url(#a)"/><path d="M1510.459,519.018V502.479h1.592v14.969h9.166v1.569Z" transform="translate(-1474.5 -480.269)" fill="url(#a)"/><path d="M1512.459,504.479h.44v14.969h9.166v.417h-9.606Z" transform="translate(-1475.925 -481.693)" fill="url(#a)"/><path d="M1566.523,519.018l-2.154-4.638H1555.7l-2.154,4.638h-1.776l7.679-16.539h1.174l7.679,16.539Zm-2.885-6.208-3.605-7.79-3.605,7.79Z" transform="translate(-1503.914 -480.269)" fill="url(#a)"/><path d="M1566.967,515.228h-9.408l-2.154,4.638h-.506l7.144-15.387h.44l7.144,15.387h-.505Zm-.2-.418-4.506-9.737-4.506,9.737Z" transform="translate(-1506.144 -481.693)" fill="url(#a)"/><path d="M1634.526,519.018l-10.418-13.464v13.464h-1.591V502.479h1.232l10.418,13.464V502.479h1.591v16.538Z" transform="translate(-1554.292 -480.269)" fill="url(#a)"/><path d="M1636.606,504.479v15.387h-.374l-11.276-14.574v14.574h-.44V504.479h.374l11.276,14.574V504.479Z" transform="translate(-1555.716 -481.693)" fill="url(#a)"/><path d="M1695.256,518.921a8.336,8.336,0,1,1,0-16.671,7.86,7.86,0,0,1,5.639,2.125l.377.377-1.007,1.174-.439-.419a6.3,6.3,0,0,0-4.57-1.688,6.767,6.767,0,1,0,0,13.532,6.3,6.3,0,0,0,4.57-1.709l.439-.418,1.007,1.173-.377.377A7.863,7.863,0,0,1,1695.256,518.921Z" transform="translate(-1600.058 -480.106)" fill="url(#a)"/><path d="M1688.789,512.009a7.64,7.64,0,0,1,7.891-7.759,7.291,7.291,0,0,1,5.231,1.956l-.264.308a6.87,6.87,0,0,0-4.968-1.847,7.342,7.342,0,1,0,0,14.683,6.89,6.89,0,0,0,4.968-1.868l.264.307a7.307,7.307,0,0,1-5.231,1.979A7.64,7.64,0,0,1,1688.789,512.009Z" transform="translate(-1601.482 -481.53)" fill="url(#a)"/><path d="M1754.346,519.018V502.479h11.065v1.569h-9.474v5.794h8.485v1.57h-8.485v6.036h9.8v1.569Z" transform="translate(-1648.162 -480.269)" fill="url(#a)"/><path d="M1766.589,519.448v.417h-10.243V504.479h9.914v.418h-9.474v6.946h8.485v.418h-8.485v7.188Z" transform="translate(-1649.586 -481.693)" fill="url(#a)"/></g></g></svg>