<svg xmlns="http://www.w3.org/2000/svg" width="119.355" height="75.102" viewBox="0 0 119.355 75.102">
  <g id="rat" transform="translate(0 -94.916)">
    <g id="Group_19" data-name="Group 19" transform="translate(68.74 122.754)">
      <g id="Group_18" data-name="Group 18">
        <path id="Path_58" data-name="Path 58" d="M297.623,213.84a1.559,1.559,0,0,0-2.2-.121,9.779,9.779,0,0,0-1.736,2.107,1.559,1.559,0,1,0,2.643,1.654,6.68,6.68,0,0,1,1.173-1.438A1.559,1.559,0,0,0,297.623,213.84Z" transform="translate(-293.448 -213.321)"/>
      </g>
    </g>
    <g id="Group_21" data-name="Group 21" transform="translate(14.996 110.484)">
      <g id="Group_20" data-name="Group 20">
        <path id="Path_59" data-name="Path 59" d="M76.2,160.715a4.058,4.058,0,1,0,4.058,4.058A4.063,4.063,0,0,0,76.2,160.715Zm0,5a.94.94,0,1,1,.94-.94A.941.941,0,0,1,76.2,165.714Z" transform="translate(-72.145 -160.715)"/>
      </g>
    </g>
    <g id="Group_23" data-name="Group 23" transform="translate(0 94.916)">
      <g id="Group_22" data-name="Group 22" transform="translate(0 0)">
        <path id="Path_60" data-name="Path 60" d="M101.783,136.288a25.718,25.718,0,0,0,.986-7.291c0-10.5-4.865-23.437-18.526-28.279-12.2-4.324-24.186-1.86-33.818.12a62.048,62.048,0,0,1-10.7,1.633,6.408,6.408,0,0,0-5.893-7.525c-1.581-.149-5.227.089-8.631,4.543a35.172,35.172,0,0,0-9.673,3.552A34.275,34.275,0,0,0,.149,119.393a1.748,1.748,0,0,0,.169,1.714,15.75,15.75,0,0,0,9.308,5.554c.016.02.031.041.049.06A15.718,15.718,0,0,0,21.5,131.946a17.458,17.458,0,0,0,2.416-.169,17.813,17.813,0,0,0,2.439-.518,1.745,1.745,0,0,0,.134.221A31.877,31.877,0,0,0,43.46,143.231c.618,1.42,1.248,2.654,1.767,3.6a.093.093,0,0,1,0,.095.116.116,0,0,1-.092.069l-.434.083a5.493,5.493,0,0,0-4.45,5.387v.65A1.748,1.748,0,0,0,42,154.862h8.544a3.618,3.618,0,0,0,3.488-2.659c.423-1.557.918-3.682,1.4-6.046.868.075,2.049.145,3.426.145A30.663,30.663,0,0,0,69.3,144.645q.223.255.463.5c.112.113.231.22.348.328a5.45,5.45,0,0,0-3.4,3.444l-1.216,3.647a1.748,1.748,0,0,0,1.659,2.3H82.3a3.613,3.613,0,0,0,3.595-3.218l.29-2.613a20.574,20.574,0,0,0,7.9-2.593,42.7,42.7,0,0,1,8.484,2.4c3.846,1.572,6.052,3.416,6.052,5.058,0,.775-.62,2.136-2.361,3.629-4.677,4.011-13.163,5.652-17.805,6.273-10.941,1.464-24.933.9-41.587-1.664a1.748,1.748,0,0,0-.636,3.437c13.7,2.961,25.88,4.45,36.338,4.45q4.8,0,9.12-.419c12.328-1.2,19.009-4.755,22.443-7.526,3.321-2.68,5.226-5.945,5.226-8.958C119.355,142.58,106.7,137.762,101.783,136.288Zm-51.122,15a.111.111,0,0,1-.114.079H44.082a1.988,1.988,0,0,1,1.282-.855l.434-.083a3.634,3.634,0,0,0,2.32-1.54l3.036.451C50.983,150.057,50.817,150.713,50.661,151.288Zm31.757-.028a.12.12,0,0,1-.12.107H69.578l.449-1.346a1.978,1.978,0,0,1,1.415-1.3l2.912-.711a23.432,23.432,0,0,0,8.111,1.256h.175Zm.589-5.5c-5.027.084-8.655-.953-10.762-3.079-1.854-1.87-2.669-4.628-2.566-8.679a1.749,1.749,0,0,0-1.7-1.792h-.045a1.748,1.748,0,0,0-1.747,1.7,18.352,18.352,0,0,0,1.224,7.689,31.146,31.146,0,0,1-11.3,1.1c.44-2.433.834-4.948,1.1-7.248a1.748,1.748,0,0,0-3.472-.408c-.41,3.486-1.109,7.473-1.819,10.876L48.41,145.4c-.038-.083-.073-.166-.117-.247-1.463-2.667-3.918-7.849-3.918-12.59a1.748,1.748,0,0,0-3.5,0,23.117,23.117,0,0,0,1.041,6.477A28.565,28.565,0,0,1,29.7,129.925a12.23,12.23,0,0,0,5.39-5.123,1.748,1.748,0,1,0-3.14-1.538c-1.2,2.44-4.695,4.517-8.51,5.049a12.9,12.9,0,0,1-7.769-1.26,26.64,26.64,0,0,0,2.862-.366,1.748,1.748,0,1,0-.626-3.44c-8.155,1.483-12.557-1.888-14.094-3.435a30.316,30.316,0,0,1,13.251-13.626A34.73,34.73,0,0,1,23.2,103.6a1.747,1.747,0,0,0,3.249.427c2.846-5.393,5.873-5.716,7.045-5.6a3.018,3.018,0,0,1,2.669,1.956,2.421,2.421,0,0,1-.131,2.1c-.684,1.151-2.579,2.1-5.334,2.662a1.748,1.748,0,1,0,.7,3.425,13.722,13.722,0,0,0,6.282-2.71c3.62.414,8.187-.521,13.443-1.6,9.206-1.892,20.664-4.247,31.945-.249a22.79,22.79,0,0,1,12.371,10.179A29.219,29.219,0,0,1,99.272,129c0,5.167-1.465,9.408-4.234,12.266C92.228,144.162,88.18,145.675,83.006,145.76Zm28.926,13.592A30.209,30.209,0,0,1,99.875,164.8a26.169,26.169,0,0,0,8.656-4.621c2.31-1.981,3.582-4.212,3.582-6.283,0-5.962-9.179-9.012-14.469-10.273a16.841,16.841,0,0,0,2.848-4.06c4,1.182,15.366,5.27,15.366,13.554C115.858,155.037,114.39,157.368,111.932,159.352Z" transform="translate(0 -94.916)"/>
      </g>
    </g>
  </g>
</svg>
