<svg xmlns="http://www.w3.org/2000/svg" width="102.668" height="102.984" viewBox="0 0 102.668 102.984">
  <g id="Atgxzl.tif" transform="translate(-714.929 -293)">
    <g id="Group_35" data-name="Group 35" transform="translate(714.929 293)">
      <path id="Path_75" data-name="Path 75" d="M815.484,546.642c-23.372-.017-47.262-.018-67.82-.018H717.405c-1.941,0-2.472-.525-2.473-2.442-.006-20.76,0-38.107.006-54.593a4.708,4.708,0,0,1,.152-1.351,1.642,1.642,0,0,1,1.584-1.1,1.721,1.721,0,0,1,.253.019,1.6,1.6,0,0,1,1.455,1.663c.036,3.9.034,7.871.033,11.711v2.832q0,13.118,0,26.235v13.444H814.3l.084-1.575c.005-.1.013-.207.02-.311.018-.257.038-.549.038-.854l0-4.2c0-6.6.009-13.429-.016-20.146a10.719,10.719,0,0,0-.508-3.138,3.852,3.852,0,0,0-3.573-2.783q-.139-.007-.275-.007a3.993,3.993,0,0,0-3.785,2.424,9.946,9.946,0,0,0-.679,2.895,1.788,1.788,0,0,1-1.641,1.8l-.1,0a1.7,1.7,0,0,1-1.743-1.651c-.033-.221-.06-.443-.087-.667a11.909,11.909,0,0,0-.368-2.012,4.2,4.2,0,0,0-3.984-3.192l-.133,0a4.275,4.275,0,0,0-3.864,3.251,9.935,9.935,0,0,0-.362,2.2c-.093,1.374-.685,2.071-1.761,2.071h-.022c-1.326-.011-1.684-1.115-1.751-2.04a9.439,9.439,0,0,0-.433-2.34,4.094,4.094,0,0,0-7.935.117,12.138,12.138,0,0,0-.342,1.913c-.043.351-.083.683-.142.991a1.484,1.484,0,0,1-1.091,1.269,2.065,2.065,0,0,1-.643.114,1.633,1.633,0,0,1-1.116-.473,1.921,1.921,0,0,1-.566-1.654c.007-2.776,0-5.6,0-8.325q0-2.079,0-4.158,0-1.281.006-2.562c.008-1.927.015-3.921-.018-5.889a13.781,13.781,0,0,0-.444-3.384,5.109,5.109,0,0,0-4.795-4h-.041a5.01,5.01,0,0,0-4.711,4.158,14.365,14.365,0,0,0-.379,3.375c-.018,9.762-.02,19.687-.022,29.285,0,3.654,0,11.129,0,11.129a8.637,8.637,0,0,1-.047,1.158,1.664,1.664,0,0,1-1.654,1.461H765.4a1.682,1.682,0,0,1-1.713-1.468,5.511,5.511,0,0,1-.038-.784q0-4.441,0-8.882c-.005-10.379-.01-21.112.038-31.666a18.217,18.217,0,0,1,.677-5.063,8.308,8.308,0,0,1,8.007-6.209h.057a8.475,8.475,0,0,1,7.875,6.241,21.222,21.222,0,0,1,.678,5.022c.081,2.131.063,4.322.046,6.44-.008.917-.015,1.834-.015,2.751v3l1.8-.15c.1-.009.194-.014.278-.018a4.845,4.845,0,0,0,.714-.079,8.557,8.557,0,0,1,1.681-.174,7.227,7.227,0,0,1,4.387,1.48,2.57,2.57,0,0,0,3.315,0,7.569,7.569,0,0,1,4.513-1.568,7.77,7.77,0,0,1,4.722,1.7,2.739,2.739,0,0,0,1.68.637,2.707,2.707,0,0,0,1.5-.49,8.386,8.386,0,0,1,4.567-1.434,7.712,7.712,0,0,1,7.213,5.455,3.782,3.782,0,0,0,.217.484v33.359a2.522,2.522,0,0,1-2.109.767Z" transform="translate(-714.929 -443.658)"/>
      <path id="Path_76" data-name="Path 76" d="M797.412,349.653a1.715,1.715,0,0,1-1.672-1.814c-.026-2.951-.023-5.956-.021-8.862q0-1.334,0-2.668,0-13.585,0-27.17V296.391H752.162v2.83l0,6.863c0,7.159-.007,14.562,0,21.843,0,1.19-.195,1.565-.489,1.761a3.046,3.046,0,0,1-1.465.539c-7.114.034-14.253.038-20.3.038l-12.805,0c-1.247,0-1.63-.511-1.858-1.064a1.776,1.776,0,0,1,.585-2.173l10.842-10.957q11.167-11.286,22.338-22.57a6.783,6.783,0,0,1,.581-.5h48.74a2.617,2.617,0,0,1,.9,2.335c-.019,13.18-.015,26.581-.012,39.54l0,12.4c0,.231,0,.45-.016.631a1.747,1.747,0,0,1-1.733,1.749Zm-62.883-22.864c3.644,0,7.567,0,11.561.019h0a2.593,2.593,0,0,0,1.922-.7,2.769,2.769,0,0,0,.7-2.046c-.013-3.474-.012-7.009-.01-10.426V302.218l-2.193-1.243-24.973,25.251,3.294.454c.154.021.267.039.355.053a3.444,3.444,0,0,0,.574.057Z" transform="translate(-715.051 -293)"/>
    </g>
  </g>
</svg>
