<svg xmlns="http://www.w3.org/2000/svg" width="68.211" height="100.997" viewBox="0 0 68.211 100.997">
  <g id="shisha" transform="translate(-29.894 -13.5)">
    <path id="Path_63" data-name="Path 63" d="M96.356,13.5H90.375a1.75,1.75,0,0,0-1.75,1.75V33.83a1.75,1.75,0,0,0,1.75,1.75h1.241V69.341a5.248,5.248,0,0,1-5.242,5.242H84.858a5.248,5.248,0,0,1-5.242-5.242V59.212a8.73,8.73,0,0,0-13.673-7.2l-.652-.652a1.8,1.8,0,0,0-2.475,0l-4.469,4.469V36H58.5a7.727,7.727,0,0,0,7.718-7.719,1.75,1.75,0,0,0-1.75-1.75h-4.7A8.209,8.209,0,0,0,61.3,21.768V15.253a1.75,1.75,0,0,0-1.75-1.75H46.519a1.75,1.75,0,0,0-1.75,1.75v6.515a8.21,8.21,0,0,0,1.524,4.765H41.6a1.75,1.75,0,0,0-1.75,1.75A7.728,7.728,0,0,0,47.564,36h.154V60.317A9.091,9.091,0,0,0,45.08,72.192C37.656,76.121,32.1,85.328,32.1,94.219c0,4.461,1.364,7.832,4.138,10.163H31.644a1.75,1.75,0,0,0-1.75,1.75v6.615a1.75,1.75,0,0,0,1.75,1.75H74.422a1.75,1.75,0,0,0,1.75-1.75v-6.615a1.75,1.75,0,0,0-1.75-1.75H69.831c2.773-2.331,4.138-5.7,4.138-10.163,0-8.89-5.559-18.1-12.983-22.027a8.988,8.988,0,0,0,.883-6.719L69.4,57.94a1.749,1.749,0,0,0,0-2.475l-.927-.927a5.246,5.246,0,0,1,4.357-.19,5.164,5.164,0,0,1,3.285,4.863v10.13a8.752,8.752,0,0,0,8.742,8.742h1.516a8.752,8.752,0,0,0,8.742-8.742V35.583h1.24a1.75,1.75,0,0,0,1.75-1.75V15.253A1.75,1.75,0,0,0,96.356,13.5ZM48.269,21.768V17H57.8v4.765a4.764,4.764,0,0,1-9.529,0Zm-4.543,8.264H62.34A4.224,4.224,0,0,1,58.5,32.5H47.564a4.225,4.225,0,0,1-3.838-2.469ZM51.218,36h3.63V58.778a9.122,9.122,0,0,0-3.63,0Zm1.815,26.1a5.629,5.629,0,1,1-4,9.583l-.01-.011a5.625,5.625,0,0,1,4.01-9.572ZM70.469,94.219c0,5.994-2.888,9.041-9.656,10.188a1.75,1.75,0,0,0,.292,3.476H72.672V111H33.394v-3.115H44.961a1.75,1.75,0,0,0,.292-3.476c-6.769-1.146-9.656-4.193-9.656-10.187,0-7.972,5.131-16.216,11.84-19.3a9.071,9.071,0,0,0,11.191,0C65.337,78,70.469,86.248,70.469,94.219ZM60.245,62.148a9.19,9.19,0,0,0-1.636-1.635l5.445-5.445.562.562,1.07,1.07ZM92.125,17h2.481V32.08H92.125Z"/>
    <path id="Path_64" data-name="Path 64" d="M44.972,79.213c-6.85,6.313-7.018,12.811-7.022,13.084a1.75,1.75,0,0,0,1.726,1.774H39.7a1.75,1.75,0,0,0,1.75-1.726c0-.052.139-5.255,5.894-10.559a1.75,1.75,0,1,0-2.372-2.574Z"/>
  </g>
</svg>
